<svg enable-background="new 0 0 760.2 123" viewBox="0 0 760.2 123" xmlns="http://www.w3.org/2000/svg" xmlns:xlink="http://www.w3.org/1999/xlink"><linearGradient id="a" gradientTransform="matrix(1 0 0 -1 0 124)" gradientUnits="userSpaceOnUse" x1="46" x2="46" y1="60" y2="112"><stop offset="0" stop-color="#344171"/><stop offset="1" stop-color="#262f50"/></linearGradient><linearGradient id="b" gradientTransform="matrix(1 0 0 -1 0 124)" gradientUnits="userSpaceOnUse" x1="49.654" x2="49.654" y1="60" y2="94.606"><stop offset="0" stop-color="#282930"/><stop offset="1" stop-color="#171e39"/></linearGradient><linearGradient id="c" gradientTransform="matrix(1 0 0 -1 0 124)" gradientUnits="userSpaceOnUse" x1="48.152" x2="48.152" y1="60" y2="91.606"><stop offset="0" stop-color="#2f3a5b"/><stop offset="1" stop-color="#3a4a80"/></linearGradient><path d="m98 12h53v41c0 5.5-4.5 10-10 10h-53v-41c0-5.5 4.5-10 10-10z" fill="#007cc3"/><path d="m88 72h53c5.5 0 10 4.5 10 10v41h-53c-5.5 0-10-4.5-10-10z" fill="#546273"/><path d="m25 72h53v41c0 5.5-4.5 10-10 10h-53v-41c0-5.5 4.5-10 10-10z" fill="#3a3f41"/><g clip-rule="evenodd" fill-rule="evenodd"><path d="m0 0h63.8c7.8 0 10.2 6.4 10.2 14.2l4 49.8s-15.7-6.6-37.8-16.1c-8.2-3.5-20.4-8.2-27.2-12.9-2.9-2-7-10.8-8.7-17.5-2-8.2-4.3-14.3-4.3-17.5z" fill="#536274"/><path d="m78 64-28-52s-9.2 13.8-20 20.5c-6.6 4.2-16 3.5-16 3.5z" fill="url(#a)"/><path d="m78.3 64-26.3-34.6c-4.1 3.8-8.6 7.1-13.4 9.8-6.4 3.6-17.6.6-17.6.6z" fill="url(#b)"/><path d="m78.3 64-34.3-31.6s1 2.2-7 6.6c-6.4 3.5-19-.2-19-.2z" fill="url(#c)"/><path d="m198.4 32.6h-15.2v69.2h15.2zm60.4 5.8c-.9-2.1-2.4-3.9-4.2-5.2-1.8-1.2-4-1.8-6.2-1.8-4.9 0-8.4 2.3-10.5 7l-29.1 63.4h16.7l5.3-11.5h35.3l5.3 11.5h16.7zm-22.8 40.3 10.9-24.5c.2-.6.8-1 1.4-1s1.1.4 1.3 1l10.9 24.5zm137.8-46.1h-15.2c-2.2 0-4.3.6-6.1 1.9s-3.3 3-4.4 5l-10.9 16.8c-.3.5-.8.9-1.4.9s-1.1-.4-1.3-.9l-10.9-16.8c-1.2-1.9-2.7-3.6-4.4-5-1.8-1.2-3.9-1.9-6.1-1.8h-15.1v69.2h15.2v-47.5c.6 0 1.1.4 1.3.9l11 16.8c1.2 2 2.8 3.8 4.6 5.2 1.7 1.2 3.7 1.8 5.8 1.7 2.2 0 4.3-.6 6.1-1.9 1.8-1.4 3.3-3.1 4.4-5l11-16.8c.1-.3.3-.5.6-.6.2-.2.5-.2.8-.2v47.4h15.2zm90.3 0h-15.2c-2.2 0-4.3.6-6.1 1.9s-3.3 3-4.4 5l-10.9 16.8c-.3.5-.8.9-1.4.9s-1.1-.4-1.3-.9l-10.9-16.8c-1.2-1.9-2.7-3.6-4.4-5-1.8-1.2-3.9-1.9-6.1-1.8h-15.2v69.2h15.2v-47.5c.6 0 1.1.4 1.3.9l11 16.8c1.2 2 2.8 3.8 4.6 5.2 1.7 1.2 3.7 1.8 5.8 1.7 2.2 0 4.3-.6 6.1-1.9 1.8-1.4 3.3-3.1 4.4-5l11-16.8c.1-.3.3-.5.6-.6.2-.2.5-.2.7-.2v47.4h15.2zm73.8 53.8h-45.5v-11.6h41.8v-15.3h-41.8v-11.6h45.5v-15.3h-60.7v69.2h60.7zm77.4-53.8h-68.3v15.4h26.6v53.8h15.2v-53.9h26.5zm70 53.8h-45.5v-11.6h41.8v-15.3h-41.8v-11.6h45.5v-15.3h-60.7v69.2h60.7zm72.9-11.6c0-1.5-.2-3-.8-4.4-.4-1.2-1.1-2.4-2.1-3.2 1-.9 1.7-2 2.1-3.3.5-1.4.7-2.9.8-4.4v-11.6c.1-4.1-1.6-8-4.5-10.9-2.8-2.9-6.6-4.5-10.7-4.5h-45.5v69.2h15.2v-27h28.8c.8-.1 1.5.4 1.6 1.2v.4 25.4h15.2zm-15.6-15.8c-.3.3-.7.5-1.1.4h-28.8v-11.5h28.8c.7-.1 1.5.4 1.6 1.1v.4 8.5c-.1.4-.3.8-.5 1.1z" fill="#61bde3"/></g></svg>